<svg width="75" height="12" viewBox="0 0 75 12" fill="none" xmlns="http://www.w3.org/2000/svg">
<g id="Group 222">
<path id="Vector" d="M6.49826 1.06812L6.49888 1.06937L7.54103 3.15367C7.65664 3.38488 7.84814 3.58363 8.04406 3.72866C8.23826 3.87242 8.48552 3.99943 8.74619 4.03962L10.6283 4.35461C10.6285 4.35465 10.6287 4.35468 10.6289 4.35472C11.1482 4.4431 11.2961 4.64272 11.3268 4.73777C11.3569 4.83117 11.3553 5.07724 10.9822 5.45031L10.9813 5.45126L9.51372 6.92669C9.51356 6.92684 9.51341 6.92699 9.51326 6.92715C9.31649 7.12412 9.1846 7.38746 9.11163 7.63965C9.03849 7.89243 9.0089 8.18804 9.0718 8.46478L9.07203 8.46578L9.49046 10.2895L9.4906 10.2902C9.64637 10.9652 9.48207 11.1806 9.43091 11.218C9.3795 11.2556 9.12399 11.3469 8.52718 10.9949C8.52697 10.9948 8.52677 10.9946 8.52656 10.9945L6.75924 9.94518L6.75925 9.94517L6.75656 9.9436C6.5007 9.79383 6.19713 9.733 5.91974 9.733C5.64235 9.733 5.33877 9.79383 5.08291 9.9436L5.08249 9.94384L3.3061 10.986L3.30502 10.9866C2.70776 11.3391 2.4521 11.2477 2.40067 11.2101C2.3495 11.1727 2.1852 10.9573 2.34097 10.2823L2.34111 10.2816L2.75922 8.45933C2.75928 8.45906 2.75935 8.45879 2.75941 8.45852C2.8232 8.18339 2.79257 7.88867 2.71995 7.63767C2.64701 7.38557 2.51604 7.12327 2.32343 6.92445L2.32347 6.9244L2.31786 6.91879L0.857275 5.4582C0.485011 5.08594 0.482142 4.83762 0.512842 4.74232C0.543563 4.64695 0.690748 4.44756 1.20806 4.36303L1.20997 4.36271L3.09689 4.04691L3.09689 4.04692L3.10054 4.04628C3.35394 4.00194 3.59809 3.87838 3.79372 3.73484C3.98879 3.5917 4.18186 3.39473 4.29844 3.16156L5.34059 1.07726L5.3406 1.07727L5.34183 1.07477C5.58574 0.580085 5.82586 0.500253 5.92106 0.500001C6.01585 0.49975 6.25483 0.577826 6.49826 1.06812Z" fill="#BDBDBD" stroke="#BDBDBD"/>
<path id="Vector_2" d="M22.2884 1.06812L22.289 1.06937L23.3312 3.15367C23.4468 3.38488 23.6383 3.58363 23.8342 3.72866C24.0284 3.87242 24.2757 3.99943 24.5364 4.03962L26.4184 4.35461C26.4186 4.35465 26.4189 4.35468 26.4191 4.35472C26.9383 4.4431 27.0862 4.64272 27.1169 4.73777C27.1471 4.83117 27.1454 5.07724 26.7724 5.45031L26.7714 5.45126L25.3039 6.92669C25.3037 6.92684 25.3036 6.92699 25.3034 6.92715C25.1066 7.12412 24.9748 7.38746 24.9018 7.63965C24.8287 7.89243 24.7991 8.18804 24.862 8.46478L24.8622 8.46578L25.2806 10.2895L25.2808 10.2902C25.4365 10.9652 25.2722 11.1806 25.2211 11.218C25.1697 11.2556 24.9142 11.3469 24.3173 10.9949C24.3171 10.9948 24.3169 10.9946 24.3167 10.9945L22.5494 9.94518L22.5494 9.94517L22.5467 9.9436C22.2909 9.79383 21.9873 9.733 21.7099 9.733C21.4325 9.733 21.1289 9.79383 20.8731 9.9436L20.8727 9.94384L19.0963 10.986L19.0952 10.9866C18.4979 11.3391 18.2423 11.2477 18.1908 11.2101C18.1397 11.1727 17.9754 10.9573 18.1311 10.2823L18.1313 10.2816L18.5494 8.45933C18.5494 8.45906 18.5495 8.45879 18.5496 8.45852C18.6134 8.18339 18.5827 7.88867 18.5101 7.63767C18.4372 7.38557 18.3062 7.12327 18.1136 6.92445L18.1136 6.9244L18.108 6.91879L16.6474 5.4582C16.2752 5.08594 16.2723 4.83762 16.303 4.74232C16.3337 4.64695 16.4809 4.44756 16.9982 4.36303L17.0001 4.36271L18.887 4.04691L18.887 4.04692L18.8907 4.04628C19.1441 4.00194 19.3883 3.87838 19.5839 3.73484C19.779 3.5917 19.972 3.39473 20.0886 3.16156L21.1308 1.07726L21.1308 1.07727L21.132 1.07477C21.3759 0.580085 21.616 0.500253 21.7112 0.500001C21.806 0.49975 22.045 0.577826 22.2884 1.06812Z" fill="#BDBDBD" stroke="#BDBDBD"/>
<path id="Vector_3" d="M38.0785 1.06812L38.0791 1.06937L39.1213 3.15367C39.2369 3.38488 39.4284 3.58363 39.6243 3.72866C39.8185 3.87242 40.0658 3.99943 40.3265 4.03962L42.2085 4.35461C42.2087 4.35465 42.209 4.35468 42.2092 4.35472C42.7284 4.4431 42.8763 4.64272 42.907 4.73777C42.9372 4.83117 42.9355 5.07724 42.5625 5.45031L42.5615 5.45126L41.094 6.92669C41.0938 6.92684 41.0937 6.92699 41.0935 6.92715C40.8967 7.12412 40.7649 7.38746 40.6919 7.63965C40.6188 7.89243 40.5892 8.18804 40.6521 8.46478L40.6523 8.46578L41.0707 10.2895L41.0709 10.2902C41.2266 10.9652 41.0623 11.1806 41.0112 11.218C40.9598 11.2556 40.7043 11.3469 40.1074 10.9949C40.1072 10.9948 40.107 10.9946 40.1068 10.9945L38.3395 9.94518L38.3395 9.94517L38.3368 9.9436C38.081 9.79383 37.7774 9.733 37.5 9.733C37.2226 9.733 36.919 9.79383 36.6632 9.9436L36.6628 9.94384L34.8864 10.986L34.8853 10.9866C34.288 11.3391 34.0324 11.2477 33.9809 11.2101C33.9298 11.1727 33.7655 10.9573 33.9212 10.2823L33.9214 10.2816L34.3395 8.45933C34.3395 8.45906 34.3396 8.45879 34.3397 8.45852C34.4035 8.18339 34.3728 7.88867 34.3002 7.63767C34.2273 7.38557 34.0963 7.12327 33.9037 6.92445L33.9037 6.9244L33.8981 6.91879L32.4375 5.4582C32.0653 5.08594 32.0624 4.83762 32.0931 4.74232C32.1238 4.64695 32.271 4.44756 32.7883 4.36303L32.7902 4.36271L34.6771 4.04691L34.6771 4.04692L34.6808 4.04628C34.9342 4.00194 35.1784 3.87838 35.374 3.73484C35.5691 3.5917 35.7621 3.39473 35.8787 3.16156L36.9209 1.07726L36.9209 1.07727L36.9221 1.07477C37.166 0.580085 37.4061 0.500253 37.5013 0.500001C37.5961 0.49975 37.8351 0.577826 38.0785 1.06812Z" fill="#BDBDBD" stroke="#BDBDBD"/>
<path id="Vector_4" d="M53.8687 1.06812L53.8693 1.06937L54.9115 3.15367C55.0271 3.38488 55.2186 3.58363 55.4145 3.72866C55.6087 3.87242 55.8559 3.99943 56.1166 4.03962L57.9987 4.35461C57.9989 4.35465 57.9991 4.35468 57.9993 4.35472C58.5186 4.4431 58.6665 4.64272 58.6972 4.73777C58.7273 4.83117 58.7257 5.07724 58.3526 5.45031L58.3517 5.45126L56.8841 6.92669C56.884 6.92684 56.8838 6.92699 56.8837 6.92715C56.6869 7.12412 56.555 7.38746 56.4821 7.63965C56.4089 7.89243 56.3793 8.18804 56.4422 8.46478L56.4424 8.46578L56.8609 10.2895L56.861 10.2902C57.0168 10.9652 56.8525 11.1806 56.8013 11.218C56.7499 11.2556 56.4944 11.3469 55.8976 10.9949C55.8974 10.9948 55.8972 10.9946 55.897 10.9945L54.1297 9.94518L54.1297 9.94517L54.127 9.9436C53.8711 9.79383 53.5675 9.733 53.2902 9.733C53.0128 9.733 52.7092 9.79383 52.4533 9.9436L52.4529 9.94384L50.6765 10.986L50.6754 10.9866C50.0782 11.3391 49.8225 11.2477 49.7711 11.2101C49.7199 11.1727 49.5556 10.9573 49.7114 10.2823L49.7115 10.2816L50.1296 8.45933C50.1297 8.45906 50.1298 8.45879 50.1298 8.45852C50.1936 8.18339 50.163 7.88867 50.0904 7.63767C50.0174 7.38557 49.8865 7.12327 49.6939 6.92445L49.6939 6.9244L49.6883 6.91879L48.2277 5.4582C47.8554 5.08594 47.8526 4.83762 47.8833 4.74232C47.914 4.64695 48.0612 4.44756 48.5785 4.36303L48.5804 4.36271L50.4673 4.04691L50.4673 4.04692L50.471 4.04628C50.7244 4.00194 50.9685 3.87838 51.1641 3.73484C51.3592 3.5917 51.5523 3.39473 51.6689 3.16156L52.711 1.07726L52.711 1.07727L52.7123 1.07477C52.9562 0.580085 53.1963 0.500253 53.2915 0.500001C53.3863 0.49975 53.6252 0.577826 53.8687 1.06812Z" fill="#BDBDBD" stroke="#BDBDBD"/>
<path id="Vector_5" d="M69.6588 1.06812L69.6594 1.06937L70.7016 3.15367C70.8172 3.38488 71.0087 3.58363 71.2046 3.72866C71.3988 3.87242 71.646 3.99943 71.9067 4.03962L73.7888 4.35461C73.789 4.35465 73.7892 4.35468 73.7894 4.35472C74.3087 4.4431 74.4566 4.64272 74.4873 4.73777C74.5174 4.83117 74.5158 5.07724 74.1427 5.45031L74.1418 5.45126L72.6742 6.92669C72.6741 6.92684 72.6739 6.92699 72.6738 6.92715C72.477 7.12412 72.3451 7.38746 72.2722 7.63965C72.199 7.89243 72.1694 8.18804 72.2323 8.46478L72.2325 8.46578L72.651 10.2895L72.6511 10.2902C72.8069 10.9652 72.6426 11.1806 72.5914 11.218C72.54 11.2556 72.2845 11.3469 71.6877 10.9949C71.6875 10.9948 71.6873 10.9946 71.6871 10.9945L69.9198 9.94518L69.9198 9.94517L69.9171 9.9436C69.6612 9.79383 69.3576 9.733 69.0803 9.733C68.8029 9.733 68.4993 9.79383 68.2434 9.9436L68.243 9.94384L66.4666 10.986L66.4655 10.9866C65.8683 11.3391 65.6126 11.2477 65.5612 11.2101C65.51 11.1727 65.3457 10.9573 65.5015 10.2823L65.5016 10.2816L65.9197 8.45933C65.9198 8.45906 65.9199 8.45879 65.9199 8.45852C65.9837 8.18339 65.9531 7.88867 65.8805 7.63767C65.8075 7.38557 65.6766 7.12327 65.484 6.92445L65.484 6.9244L65.4784 6.91879L64.0178 5.4582C63.6455 5.08594 63.6427 4.83762 63.6734 4.74232C63.7041 4.64695 63.8513 4.44756 64.3686 4.36303L64.3705 4.36271L66.2574 4.04691L66.2574 4.04692L66.2611 4.04628C66.5145 4.00194 66.7586 3.87838 66.9542 3.73484C67.1493 3.5917 67.3424 3.39473 67.459 3.16156L68.5011 1.07726L68.5011 1.07727L68.5024 1.07477C68.7463 0.580085 68.9864 0.500253 69.0816 0.500001C69.1764 0.49975 69.4153 0.577826 69.6588 1.06812Z" stroke="#BDBDBD"/>
</g>
</svg>
